<mxfile host="app.diagrams.net" modified="2023-07-10T21:20:52.920Z" agent="Mozilla/5.0 (Windows NT 10.0; Win64; x64; rv:109.0) Gecko/20100101 Firefox/115.0" etag="leEag94tmXCPlZaoE24d" version="21.5.2" type="github" pages="4">
  <diagram name="Page-1" id="lTvoeNrfEDn3qi3mLz7C">
    <mxGraphModel dx="1420" dy="768" grid="1" gridSize="10" guides="1" tooltips="1" connect="1" arrows="1" fold="1" page="1" pageScale="1" pageWidth="850" pageHeight="1100" math="0" shadow="0">
      <root>
        <mxCell id="0" />
        <mxCell id="1" parent="0" />
      </root>
    </mxGraphModel>
  </diagram>
  <diagram id="ldLt90jKaEwZHKQVQ9SH" name="Page-2">
    <mxGraphModel dx="1434" dy="782" grid="1" gridSize="10" guides="1" tooltips="1" connect="1" arrows="1" fold="1" page="1" pageScale="1" pageWidth="850" pageHeight="1100" math="0" shadow="0">
      <root>
        <mxCell id="0" />
        <mxCell id="1" parent="0" />
        <mxCell id="lziXZ7SM_UatVhRU3QI8-1" value="" style="fontColor=#0066CC;verticalAlign=top;verticalLabelPosition=bottom;labelPosition=center;align=center;html=1;outlineConnect=0;fillColor=#CCCCCC;strokeColor=#6881B3;gradientColor=none;gradientDirection=north;strokeWidth=2;shape=mxgraph.networks.router;" parent="1" vertex="1">
          <mxGeometry x="310" y="360" width="100" height="30" as="geometry" />
        </mxCell>
      </root>
    </mxGraphModel>
  </diagram>
  <diagram name="Copy of Page-2" id="l7fpu74nM6tmV7rQFiXq">
    <mxGraphModel dx="1434" dy="782" grid="1" gridSize="10" guides="1" tooltips="1" connect="1" arrows="1" fold="1" page="1" pageScale="1" pageWidth="850" pageHeight="1100" math="0" shadow="0">
      <root>
        <mxCell id="0ozsNC-3qATlY3qg9g35-0" />
        <mxCell id="0ozsNC-3qATlY3qg9g35-1" parent="0ozsNC-3qATlY3qg9g35-0" />
        <mxCell id="0ozsNC-3qATlY3qg9g35-2" value="&lt;div style=&quot;font-size: 15px;&quot;&gt;&lt;font style=&quot;font-size: 15px;&quot;&gt;&lt;b&gt;&lt;font style=&quot;font-size: 15px;&quot;&gt;vyos-r1&lt;/font&gt;&lt;br&gt;10.0.1.1/24&lt;/b&gt;&lt;/font&gt;&lt;/div&gt;" style="verticalAlign=middle;verticalLabelPosition=middle;labelPosition=left;align=right;html=1;outlineConnect=0;gradientDirection=north;strokeWidth=2;shape=mxgraph.networks.router;labelBackgroundColor=none;rounded=0;fillColor=#F5AB50;strokeColor=#909090;fontColor=#1A1A1A;spacing=5;" parent="0ozsNC-3qATlY3qg9g35-1" vertex="1">
          <mxGeometry x="337.5" y="100" width="100" height="30" as="geometry" />
        </mxCell>
        <mxCell id="wbde6btYGo1Rc7aDojYe-2" value="&lt;font size=&quot;1&quot;&gt;&lt;b style=&quot;font-size: 14px;&quot;&gt;proxmox&lt;br&gt;&lt;/b&gt;&lt;span style=&quot;font-size: 14px;&quot;&gt;vmbr1&lt;/span&gt;&lt;b style=&quot;font-size: 14px;&quot;&gt;&lt;br&gt;&lt;/b&gt;&lt;/font&gt;" style="verticalAlign=middle;verticalLabelPosition=middle;labelPosition=left;align=right;html=1;outlineConnect=0;gradientDirection=north;strokeWidth=2;shape=mxgraph.networks.switch;labelBackgroundColor=none;rounded=0;fillColor=#F5AB50;strokeColor=#909090;fontColor=#1A1A1A;spacingLeft=0;spacing=-1;spacingRight=3;" parent="0ozsNC-3qATlY3qg9g35-1" vertex="1">
          <mxGeometry x="337.5" y="180" width="100" height="30" as="geometry" />
        </mxCell>
        <mxCell id="wbde6btYGo1Rc7aDojYe-5" style="rounded=0;orthogonalLoop=1;jettySize=auto;html=1;entryX=0.5;entryY=0;entryDx=0;entryDy=0;entryPerimeter=0;exitX=0.5;exitY=1;exitDx=0;exitDy=0;exitPerimeter=0;labelBackgroundColor=none;fontColor=default;strokeColor=#182E3E;startArrow=oval;startFill=1;endArrow=oval;endFill=1;spacing=5;" parent="0ozsNC-3qATlY3qg9g35-1" source="0ozsNC-3qATlY3qg9g35-2" target="wbde6btYGo1Rc7aDojYe-2" edge="1">
          <mxGeometry relative="1" as="geometry">
            <mxPoint x="402.5" y="150" as="sourcePoint" />
          </mxGeometry>
        </mxCell>
        <mxCell id="wbde6btYGo1Rc7aDojYe-6" style="rounded=0;orthogonalLoop=1;jettySize=auto;html=1;exitX=0.5;exitY=0;exitDx=0;exitDy=0;exitPerimeter=0;entryX=0.5;entryY=1;entryDx=0;entryDy=0;entryPerimeter=0;endArrow=oval;endFill=1;startArrow=oval;startFill=1;labelBackgroundColor=none;fontColor=default;strokeColor=#182E3E;spacing=5;" parent="0ozsNC-3qATlY3qg9g35-1" source="yPNx-ZVjFcf2uYVJnIcy-0" target="wbde6btYGo1Rc7aDojYe-2" edge="1">
          <mxGeometry relative="1" as="geometry">
            <mxPoint x="387.5" y="260" as="sourcePoint" />
          </mxGeometry>
        </mxCell>
        <mxCell id="yPNx-ZVjFcf2uYVJnIcy-0" value="&lt;b&gt;server1&lt;/b&gt;&lt;br&gt;&lt;div&gt;10.0.1.11&lt;/div&gt;" style="verticalAlign=middle;verticalLabelPosition=middle;labelPosition=left;align=right;html=1;outlineConnect=0;gradientDirection=north;strokeWidth=2;shape=mxgraph.networks.virtual_pc;labelBackgroundColor=none;rounded=0;fillColor=#F5AB50;strokeColor=#909090;fontColor=#1A1A1A;spacing=5;" parent="0ozsNC-3qATlY3qg9g35-1" vertex="1">
          <mxGeometry x="330" y="260" width="115" height="85" as="geometry" />
        </mxCell>
      </root>
    </mxGraphModel>
  </diagram>
  <diagram id="gqFhfYWQzc5XKCkIP0LY" name="Page-4">
    <mxGraphModel dx="1434" dy="782" grid="1" gridSize="10" guides="1" tooltips="1" connect="1" arrows="1" fold="1" page="1" pageScale="1" pageWidth="850" pageHeight="1100" math="0" shadow="0">
      <root>
        <mxCell id="0" />
        <mxCell id="1" parent="0" />
        <mxCell id="CHx8zjHurK8OmnZqfPBY-13" value="" style="group" vertex="1" connectable="0" parent="1">
          <mxGeometry x="60" y="210" width="224" height="280" as="geometry" />
        </mxCell>
        <mxCell id="LraWY5jU_N1q2EquGSfM-1" value="host4" style="fontColor=#000000;verticalAlign=top;verticalLabelPosition=bottom;labelPosition=center;align=center;html=1;outlineConnect=0;fillColor=#CCCCCC;strokeColor=#4D4D4D;gradientColor=none;gradientDirection=north;strokeWidth=2;shape=mxgraph.networks.virtual_server;fontStyle=1;fontSize=14;labelBackgroundColor=default;" parent="CHx8zjHurK8OmnZqfPBY-13" vertex="1">
          <mxGeometry x="136" y="184" width="88" height="96" as="geometry" />
        </mxCell>
        <mxCell id="LraWY5jU_N1q2EquGSfM-3" value="host3" style="fontColor=#000000;verticalAlign=top;verticalLabelPosition=bottom;labelPosition=center;align=center;html=1;outlineConnect=0;fillColor=#CCCCCC;strokeColor=#4D4D4D;gradientColor=none;gradientDirection=north;strokeWidth=2;shape=mxgraph.networks.virtual_server;fontStyle=1;fontSize=14;labelBackgroundColor=default;" parent="CHx8zjHurK8OmnZqfPBY-13" vertex="1">
          <mxGeometry y="184" width="88" height="96" as="geometry" />
        </mxCell>
        <mxCell id="CHx8zjHurK8OmnZqfPBY-3" value="&lt;div&gt;10.0.10.0/24 (vmbr1)&lt;/div&gt;" style="html=1;fillColor=#CCCCCC;strokeColor=#4D4D4D;gradientColor=none;gradientDirection=north;strokeWidth=2;shape=mxgraph.networks.bus;gradientColor=none;gradientDirection=north;fontColor=#000000;perimeter=backbonePerimeter;backboneSize=20;fontSize=14;fontStyle=1" vertex="1" parent="CHx8zjHurK8OmnZqfPBY-13">
          <mxGeometry y="136" width="224" height="16" as="geometry" />
        </mxCell>
        <mxCell id="CHx8zjHurK8OmnZqfPBY-4" value="" style="strokeColor=#666666;edgeStyle=none;rounded=0;endArrow=none;html=1;strokeWidth=2;fontSize=14;verticalAlign=top;fillColor=#CCCCCC;fontColor=#0066CC;gradientColor=none;gradientDirection=north;" edge="1" target="CHx8zjHurK8OmnZqfPBY-3" parent="CHx8zjHurK8OmnZqfPBY-13" source="LraWY5jU_N1q2EquGSfM-2">
          <mxGeometry relative="1" as="geometry">
            <mxPoint x="80" y="304" as="sourcePoint" />
          </mxGeometry>
        </mxCell>
        <mxCell id="CHx8zjHurK8OmnZqfPBY-9" value="" style="strokeColor=#666666;edgeStyle=none;rounded=0;endArrow=none;html=1;strokeWidth=2;fontSize=14;verticalAlign=top;fillColor=#CCCCCC;fontColor=#0066CC;gradientColor=none;gradientDirection=north;" edge="1" target="CHx8zjHurK8OmnZqfPBY-3" parent="CHx8zjHurK8OmnZqfPBY-13" source="LraWY5jU_N1q2EquGSfM-4">
          <mxGeometry relative="1" as="geometry">
            <mxPoint x="128" y="416" as="sourcePoint" />
          </mxGeometry>
        </mxCell>
        <mxCell id="CHx8zjHurK8OmnZqfPBY-8" value="" style="strokeColor=#666666;edgeStyle=none;rounded=0;endArrow=none;html=1;strokeWidth=2;entryX=0.196;entryY=1.1;entryDx=0;entryDy=0;entryPerimeter=0;fontSize=14;verticalAlign=top;fillColor=#CCCCCC;fontColor=#0066CC;gradientColor=none;gradientDirection=north;" edge="1" target="CHx8zjHurK8OmnZqfPBY-3" parent="CHx8zjHurK8OmnZqfPBY-13" source="LraWY5jU_N1q2EquGSfM-3">
          <mxGeometry relative="1" as="geometry">
            <mxPoint x="80" y="416" as="sourcePoint" />
            <mxPoint x="-32" y="160" as="targetPoint" />
          </mxGeometry>
        </mxCell>
        <mxCell id="CHx8zjHurK8OmnZqfPBY-10" value="" style="strokeColor=#666666;edgeStyle=none;rounded=0;endArrow=none;html=1;strokeWidth=2;fontSize=14;verticalAlign=top;fillColor=#CCCCCC;fontColor=#0066CC;gradientColor=none;gradientDirection=north;" edge="1" target="CHx8zjHurK8OmnZqfPBY-3" parent="CHx8zjHurK8OmnZqfPBY-13" source="LraWY5jU_N1q2EquGSfM-1">
          <mxGeometry relative="1" as="geometry">
            <mxPoint x="176" y="416" as="sourcePoint" />
          </mxGeometry>
        </mxCell>
        <mxCell id="LraWY5jU_N1q2EquGSfM-4" value="&lt;div style=&quot;font-size: 14px;&quot;&gt;host2&lt;/div&gt;" style="fontColor=#1A1A1A;verticalAlign=top;verticalLabelPosition=bottom;labelPosition=center;align=center;html=1;outlineConnect=0;fillColor=#CCCCCC;strokeColor=#4D4D4D;gradientColor=none;gradientDirection=north;strokeWidth=2;shape=mxgraph.networks.virtual_server;fontStyle=1;fontSize=14;labelBackgroundColor=default;" parent="CHx8zjHurK8OmnZqfPBY-13" vertex="1">
          <mxGeometry x="136" width="88" height="96" as="geometry" />
        </mxCell>
        <mxCell id="LraWY5jU_N1q2EquGSfM-2" value="&lt;b style=&quot;font-size: 14px;&quot;&gt;&lt;font style=&quot;font-size: 14px;&quot; color=&quot;#000000&quot;&gt;host1&lt;/font&gt;&lt;/b&gt;" style="fontColor=#0066CC;verticalAlign=top;verticalLabelPosition=bottom;labelPosition=center;align=center;html=1;outlineConnect=0;fillColor=#CCCCCC;strokeColor=#4D4D4D;gradientColor=none;gradientDirection=north;strokeWidth=2;shape=mxgraph.networks.virtual_server;fontSize=14;labelBackgroundColor=default;" parent="CHx8zjHurK8OmnZqfPBY-13" vertex="1">
          <mxGeometry width="88" height="96" as="geometry" />
        </mxCell>
        <mxCell id="CHx8zjHurK8OmnZqfPBY-26" style="edgeStyle=orthogonalEdgeStyle;rounded=0;orthogonalLoop=1;jettySize=auto;html=1;exitX=1;exitY=0.5;exitDx=0;exitDy=0;exitPerimeter=0;entryX=0.063;entryY=0.438;entryDx=0;entryDy=0;entryPerimeter=0;endArrow=none;strokeColor=#4D4D4D;strokeWidth=2;" edge="1" parent="1" source="CHx8zjHurK8OmnZqfPBY-14" target="CHx8zjHurK8OmnZqfPBY-18">
          <mxGeometry relative="1" as="geometry">
            <Array as="points">
              <mxPoint x="475" y="353" />
            </Array>
          </mxGeometry>
        </mxCell>
        <mxCell id="CHx8zjHurK8OmnZqfPBY-27" style="edgeStyle=orthogonalEdgeStyle;rounded=0;orthogonalLoop=1;jettySize=auto;html=1;exitX=0;exitY=0.5;exitDx=0;exitDy=0;exitPerimeter=0;entryX=0.982;entryY=0.563;entryDx=0;entryDy=0;entryPerimeter=0;endArrow=none;strokeColor=#4D4D4D;strokeWidth=2;" edge="1" parent="1" source="CHx8zjHurK8OmnZqfPBY-14" target="CHx8zjHurK8OmnZqfPBY-3">
          <mxGeometry relative="1" as="geometry">
            <Array as="points">
              <mxPoint x="375" y="355" />
            </Array>
          </mxGeometry>
        </mxCell>
        <mxCell id="CHx8zjHurK8OmnZqfPBY-14" value="" style="fontColor=#0066CC;verticalAlign=top;verticalLabelPosition=bottom;labelPosition=center;align=center;html=1;outlineConnect=0;fillColor=#CCCCCC;strokeColor=#4D4D4D;gradientColor=none;gradientDirection=north;strokeWidth=2;shape=mxgraph.networks.router;" vertex="1" parent="1">
          <mxGeometry x="375" y="339" width="100" height="30" as="geometry" />
        </mxCell>
        <mxCell id="CHx8zjHurK8OmnZqfPBY-15" value="" style="group;strokeColor=none;" vertex="1" connectable="0" parent="1">
          <mxGeometry x="570" y="210" width="224" height="280" as="geometry" />
        </mxCell>
        <mxCell id="CHx8zjHurK8OmnZqfPBY-16" value="host4" style="fontColor=#000000;verticalAlign=top;verticalLabelPosition=bottom;labelPosition=center;align=center;html=1;outlineConnect=0;fillColor=#CCCCCC;strokeColor=#4D4D4D;gradientColor=none;gradientDirection=north;strokeWidth=2;shape=mxgraph.networks.virtual_server;fontStyle=1;fontSize=14;labelBackgroundColor=default;" vertex="1" parent="CHx8zjHurK8OmnZqfPBY-15">
          <mxGeometry x="136" y="184" width="88" height="96" as="geometry" />
        </mxCell>
        <mxCell id="CHx8zjHurK8OmnZqfPBY-17" value="host3" style="fontColor=#000000;verticalAlign=top;verticalLabelPosition=bottom;labelPosition=center;align=center;html=1;outlineConnect=0;fillColor=#CCCCCC;strokeColor=#4D4D4D;gradientColor=none;gradientDirection=north;strokeWidth=2;shape=mxgraph.networks.virtual_server;fontStyle=1;fontSize=14;labelBackgroundColor=default;" vertex="1" parent="CHx8zjHurK8OmnZqfPBY-15">
          <mxGeometry y="184" width="88" height="96" as="geometry" />
        </mxCell>
        <mxCell id="CHx8zjHurK8OmnZqfPBY-18" value="10.0.20.0/24 (vmbr2)" style="html=1;fillColor=#CCCCCC;strokeColor=#4D4D4D;gradientColor=none;gradientDirection=north;strokeWidth=2;shape=mxgraph.networks.bus;gradientColor=none;gradientDirection=north;fontColor=#000000;perimeter=backbonePerimeter;backboneSize=20;fontSize=14;fontStyle=1" vertex="1" parent="CHx8zjHurK8OmnZqfPBY-15">
          <mxGeometry y="136" width="224" height="16" as="geometry" />
        </mxCell>
        <mxCell id="CHx8zjHurK8OmnZqfPBY-19" value="" style="strokeColor=#6881B3;edgeStyle=none;rounded=0;endArrow=none;html=1;strokeWidth=2;" edge="1" parent="CHx8zjHurK8OmnZqfPBY-15" source="CHx8zjHurK8OmnZqfPBY-24" target="CHx8zjHurK8OmnZqfPBY-18">
          <mxGeometry relative="1" as="geometry">
            <mxPoint x="80" y="304" as="sourcePoint" />
          </mxGeometry>
        </mxCell>
        <mxCell id="CHx8zjHurK8OmnZqfPBY-20" value="" style="strokeColor=#6881B3;edgeStyle=none;rounded=0;endArrow=none;html=1;strokeWidth=2;" edge="1" parent="CHx8zjHurK8OmnZqfPBY-15" source="CHx8zjHurK8OmnZqfPBY-23" target="CHx8zjHurK8OmnZqfPBY-18">
          <mxGeometry relative="1" as="geometry">
            <mxPoint x="128" y="416" as="sourcePoint" />
          </mxGeometry>
        </mxCell>
        <mxCell id="CHx8zjHurK8OmnZqfPBY-21" value="" style="strokeColor=#6881B3;edgeStyle=none;rounded=0;endArrow=none;html=1;strokeWidth=2;entryX=0.196;entryY=1.1;entryDx=0;entryDy=0;entryPerimeter=0;" edge="1" parent="CHx8zjHurK8OmnZqfPBY-15" source="CHx8zjHurK8OmnZqfPBY-17" target="CHx8zjHurK8OmnZqfPBY-18">
          <mxGeometry relative="1" as="geometry">
            <mxPoint x="80" y="416" as="sourcePoint" />
            <mxPoint x="-32" y="160" as="targetPoint" />
          </mxGeometry>
        </mxCell>
        <mxCell id="CHx8zjHurK8OmnZqfPBY-22" value="" style="strokeColor=#6881B3;edgeStyle=none;rounded=0;endArrow=none;html=1;strokeWidth=2;" edge="1" parent="CHx8zjHurK8OmnZqfPBY-15" source="CHx8zjHurK8OmnZqfPBY-16" target="CHx8zjHurK8OmnZqfPBY-18">
          <mxGeometry relative="1" as="geometry">
            <mxPoint x="176" y="416" as="sourcePoint" />
          </mxGeometry>
        </mxCell>
        <mxCell id="CHx8zjHurK8OmnZqfPBY-23" value="&lt;div style=&quot;font-size: 14px;&quot;&gt;host2&lt;/div&gt;" style="fontColor=#000000;verticalAlign=top;verticalLabelPosition=bottom;labelPosition=center;align=center;html=1;outlineConnect=0;fillColor=#CCCCCC;strokeColor=#4D4D4D;gradientColor=none;gradientDirection=north;strokeWidth=2;shape=mxgraph.networks.virtual_server;fontStyle=1;fontSize=14;labelBackgroundColor=#FFFFFF;" vertex="1" parent="CHx8zjHurK8OmnZqfPBY-15">
          <mxGeometry x="136" width="88" height="96" as="geometry" />
        </mxCell>
        <mxCell id="CHx8zjHurK8OmnZqfPBY-24" value="&lt;b style=&quot;font-size: 14px;&quot;&gt;&lt;font style=&quot;font-size: 14px;&quot; color=&quot;#000000&quot;&gt;host1&lt;/font&gt;&lt;/b&gt;" style="fontColor=#0066CC;verticalAlign=top;verticalLabelPosition=bottom;labelPosition=center;align=center;html=1;outlineConnect=0;fillColor=#CCCCCC;strokeColor=#4D4D4D;gradientColor=none;gradientDirection=north;strokeWidth=2;shape=mxgraph.networks.virtual_server;fontSize=14;labelBackgroundColor=default;" vertex="1" parent="CHx8zjHurK8OmnZqfPBY-15">
          <mxGeometry width="88" height="96" as="geometry" />
        </mxCell>
      </root>
    </mxGraphModel>
  </diagram>
</mxfile>
